<?xml version="1.0" standalone="no"?>
<!DOCTYPE svg PUBLIC "-//W3C//DTD SVG 20010904//EN"
 "http://www.w3.org/TR/2001/REC-SVG-20010904/DTD/svg10.dtd">
<svg version="1.0" xmlns="http://www.w3.org/2000/svg"
 width="2000.000000pt" height="1600.000000pt" viewBox="0 0 2000.000000 1600.000000"
 preserveAspectRatio="xMidYMid meet">

<g transform="translate(0.000000,1600.000000) scale(0.100000,-0.100000)"
fill="#000000" stroke="none">
<path d="M580 13845 c-8 -2 -37 -7 -63 -10 -60 -8 -122 -59 -137 -114 -8 -30
-170 -1870 -170 -1931 0 -20 5 -21 112 -18 l112 3 13 80 c98 619 276 1064 566
1412 171 205 371 334 595 383 80 18 132 20 605 20 l517 0 0 -3465 0 -3465
-465 0 -465 0 0 -90 0 -90 1455 0 1455 0 0 90 0 90 -465 0 -465 0 0 3465 0
3466 543 -3 c526 -3 544 -4 622 -26 333 -93 612 -364 830 -807 82 -166 129
-288 179 -463 35 -119 86 -350 105 -477 7 -38 14 -83 17 -98 l6 -28 111 3 112
3 -3 35 c-1 19 -38 453 -82 964 -90 1057 -80 998 -175 1046 l-49 25 -2701 1
c-1485 1 -2707 0 -2715 -1z"/>
<path d="M6700 13760 l0 -90 464 0 463 0 145 -427 c80 -236 628 -1858 1219
-3606 l1074 -3178 99 3 99 3 1156 3600 1156 3600 393 3 393 2 -3 88 -3 87
-967 3 -968 2 0 -90 0 -90 464 -2 464 -3 -896 -2792 c-493 -1536 -900 -2789
-903 -2785 -6 7 -1899 5564 -1899 5576 0 3 218 6 485 6 l485 0 0 90 0 90
-1460 0 -1460 0 0 -90z"/>
<path d="M14095 13840 c-27 -4 -62 -12 -76 -18 -35 -14 -76 -65 -89 -110 -7
-27 -171 -1884 -170 -1935 0 -4 51 -6 112 -5 l113 3 12 75 c114 679 296 1119
604 1456 174 191 346 297 559 345 77 17 131 19 603 19 l517 0 0 -3465 0 -3465
-465 0 -466 0 3 -87 3 -88 1455 0 1455 0 3 88 3 87 -471 0 -470 0 0 3465 0
3465 519 0 c547 0 579 -2 711 -48 233 -81 439 -258 627 -537 207 -309 345
-705 433 -1242 l12 -73 108 0 c60 0 111 3 113 8 6 10 -160 1923 -169 1947 -16
43 -49 79 -93 99 l-46 21 -2700 1 c-1485 1 -2722 -2 -2750 -6z"/>
<path d="M1050 4824 c0 -562 1 -595 18 -592 16 3 17 40 20 576 l2 572 8880 0
8880 0 0 -575 c0 -504 2 -575 15 -575 13 0 15 71 15 581 0 490 -2 583 -14 595
-13 12 -1215 14 -8915 14 l-8901 0 0 -596z"/>
<path d="M6800 5145 l0 -35 125 0 125 0 0 -330 0 -330 40 0 40 0 0 330 0 330
125 0 125 0 0 35 0 35 -290 0 -290 0 0 -35z"/>
<path d="M8230 4816 l0 -366 35 0 35 0 0 115 0 115 130 0 129 0 82 -115 c81
-112 83 -115 121 -115 21 0 38 3 38 8 -1 4 -38 59 -84 122 l-84 115 49 28 c59
33 95 85 108 152 23 127 -34 232 -148 276 -47 18 -86 22 -233 27 l-178 5 0
-367z m355 283 c57 -16 95 -46 116 -93 37 -82 13 -178 -58 -226 -34 -24 -46
-25 -190 -28 l-153 -4 0 174 c0 96 3 178 7 181 11 11 235 8 278 -4z"/>
<path d="M9879 5093 c-128 -277 -289 -633 -289 -637 0 -3 17 -6 38 -6 l37 0
41 93 40 92 205 3 206 2 43 -95 43 -95 38 0 c22 0 39 2 39 4 0 2 -74 165 -164
362 l-164 359 -36 3 -36 3 -41 -88z m166 -201 c42 -96 75 -176 72 -178 -2 -3
-78 -3 -169 -2 l-165 3 56 125 c112 252 113 254 121 239 5 -8 43 -92 85 -187z"/>
<path d="M11369 5167 c-193 -55 -305 -251 -255 -447 43 -169 183 -273 366
-273 97 0 173 24 230 72 l35 29 -23 25 -24 25 -44 -33 c-149 -114 -400 -34
-460 147 -38 114 1 261 88 330 110 86 281 92 386 12 l34 -27 21 22 c30 29 16
48 -67 90 -59 31 -77 35 -154 38 -50 2 -106 -3 -133 -10z"/>
<path d="M12637 5174 c-4 -4 -7 -169 -7 -366 l0 -358 255 0 255 0 0 35 0 35
-215 0 -215 0 0 135 0 135 185 0 185 0 0 30 0 30 -185 0 -185 0 0 130 0 130
211 0 210 0 -3 33 -3 32 -241 3 c-132 1 -243 -1 -247 -4z"/>
<path d="M1582 3733 c3 -10 74 -175 159 -366 l153 -348 39 3 39 3 159 359 c88
198 159 361 159 363 0 9 -69 1 -77 -9 -5 -7 -70 -149 -143 -315 -74 -167 -137
-299 -140 -295 -4 4 -51 108 -105 232 -54 124 -115 262 -136 308 -37 81 -38
82 -75 82 -30 0 -35 -3 -32 -17z"/>
<path d="M3137 3743 c-4 -3 -7 -168 -7 -365 l0 -358 40 0 40 0 0 365 0 365
-33 0 c-19 0 -37 -3 -40 -7z"/>
<path d="M4269 3736 c-101 -36 -149 -96 -149 -187 0 -105 52 -148 240 -199
162 -45 200 -71 200 -139 0 -45 -19 -79 -59 -104 -31 -19 -50 -22 -131 -22
-94 0 -130 11 -241 72 -3 2 -11 -9 -18 -24 -15 -32 -6 -41 74 -79 148 -69 356
-42 421 55 56 86 35 196 -47 244 -41 23 -85 39 -241 81 -106 30 -149 94 -113
171 39 81 184 105 315 52 35 -14 64 -25 65 -24 25 57 25 56 -3 71 -85 44 -237
59 -313 32z"/>
<path d="M5524 3736 c-3 -8 -4 -124 -2 -258 5 -267 11 -301 68 -370 17 -20 56
-49 86 -64 48 -23 68 -27 144 -27 76 0 96 4 144 27 66 32 109 81 133 151 15
43 18 87 18 300 l0 250 -35 0 -35 0 -5 -260 c-5 -259 -5 -260 -32 -305 -39
-67 -93 -95 -188 -94 -82 0 -117 13 -162 61 -49 51 -52 72 -58 343 l-5 255
-33 3 c-22 2 -34 -2 -38 -12z"/>
<path d="M7249 3663 c-128 -277 -289 -633 -289 -637 0 -3 17 -6 38 -6 l37 0
41 93 40 92 205 3 206 2 43 -95 43 -95 38 0 c22 0 39 2 39 4 0 2 -74 165 -164
362 l-164 359 -36 3 -36 3 -41 -88z m166 -201 c42 -96 75 -176 72 -178 -2 -3
-78 -3 -169 -2 l-165 3 56 125 c112 252 113 254 121 239 5 -8 43 -92 85 -187z"/>
<path d="M8540 3385 l0 -365 240 0 240 0 0 35 0 35 -205 0 -205 0 0 330 0 330
-35 0 -35 0 0 -365z"/>
<path d="M9870 3385 l0 -365 35 0 35 0 0 365 0 365 -35 0 -35 0 0 -365z"/>
<path d="M10840 3715 l0 -35 235 -2 234 -3 -239 -302 c-171 -216 -240 -309
-240 -328 l0 -25 301 0 300 0 -3 33 -3 32 -242 5 -242 5 234 295 c195 246 234
300 235 328 l0 32 -285 0 -285 0 0 -35z"/>
<path d="M12513 3738 c-5 -7 -23 -44 -41 -83 -17 -38 -90 -197 -161 -353
l-130 -283 42 3 41 3 41 92 40 93 205 0 205 0 41 -92 41 -93 42 -3 41 -3 -23
53 c-13 29 -88 194 -167 366 l-143 312 -32 0 c-18 0 -37 -6 -42 -12z m204
-455 c-2 -2 -79 -2 -170 -1 l-166 3 60 135 c33 74 71 160 85 190 l25 55 85
-189 c46 -104 83 -191 81 -193z"/>
<path d="M13650 3715 l0 -35 125 0 125 0 0 -330 0 -330 40 0 40 0 0 330 0 330
131 0 130 0 -3 33 -3 32 -292 3 -293 2 0 -35z"/>
<path d="M15087 3744 c-4 -4 -7 -169 -7 -366 l0 -358 40 0 40 0 -2 363 -3 362
-30 3 c-17 2 -34 0 -38 -4z"/>
<path d="M16319 3737 c-193 -55 -305 -251 -255 -447 48 -188 231 -302 432
-270 124 20 217 85 275 192 33 60 34 68 34 168 0 95 -3 111 -28 162 -37 75
-98 135 -177 172 -53 25 -79 31 -150 33 -48 2 -105 -3 -131 -10z m224 -73
c109 -37 190 -152 190 -272 1 -152 -75 -256 -218 -297 -111 -33 -233 1 -309
86 -143 160 -80 413 121 485 52 18 160 17 216 -2z"/>
<path d="M17710 3385 l0 -365 35 0 35 0 0 290 c0 160 3 290 8 289 4 0 110
-130 235 -290 206 -261 231 -289 258 -289 l29 0 0 365 0 365 -35 0 -35 0 -2
-295 -3 -294 -233 294 c-210 265 -237 295 -263 295 l-29 0 0 -365z"/>
<path d="M1034 2088 c3 -216 9 -482 12 -590 l7 -198 8891 0 c6903 0 8895 3
8904 12 9 9 12 154 12 590 0 506 -2 578 -15 578 -13 0 -15 -73 -17 -572 l-3
-573 -8864 -3 c-6495 -1 -8867 1 -8872 9 -3 6 -10 257 -13 558 -4 300 -10 554
-12 564 -3 9 -12 17 -21 17 -14 0 -15 -40 -9 -392z"/>
<path d="M7450 2285 l0 -35 125 0 125 0 0 -330 0 -330 40 0 40 0 0 330 0 330
131 0 130 0 -3 33 -3 32 -292 3 -293 2 0 -35z"/>
<path d="M9085 2307 c-109 -37 -186 -101 -232 -195 -25 -51 -28 -67 -28 -162
0 -90 4 -112 24 -152 54 -111 159 -188 284 -208 177 -28 337 54 411 210 27 57
31 75 30 150 -1 153 -70 267 -200 331 -55 27 -77 32 -157 35 -59 3 -106 -1
-132 -9z m264 -92 c206 -113 200 -427 -12 -529 -153 -74 -338 -17 -412 128
-25 50 -29 70 -29 135 -1 98 28 164 96 226 67 60 113 75 218 72 72 -3 93 -7
139 -32z"/>
<path d="M10675 2307 c-109 -37 -186 -101 -232 -195 -25 -51 -28 -67 -28 -162
0 -90 4 -112 24 -152 54 -111 159 -188 284 -208 177 -28 337 54 411 210 27 57
31 75 30 150 -1 153 -70 267 -200 331 -55 27 -77 32 -157 35 -59 3 -106 -1
-132 -9z m264 -92 c206 -113 200 -427 -12 -529 -153 -74 -338 -17 -412 128
-25 50 -29 70 -29 135 -1 98 28 164 96 226 67 60 113 75 218 72 72 -3 93 -7
139 -32z"/>
<path d="M12067 2313 c-4 -3 -7 -168 -7 -365 l0 -358 246 0 245 0 -3 33 -3 32
-202 3 -203 2 0 330 0 330 -33 0 c-19 0 -37 -3 -40 -7z"/>
</g>
</svg>
